<svg width="70" height="65" viewBox="0 0 70 65" fill="none" xmlns="http://www.w3.org/2000/svg">
<path d="M13.475 48.4458C16.45 46.3604 19.775 44.7161 23.45 43.513C27.125 42.3099 30.975 41.7083 35 41.7083C39.025 41.7083 42.875 42.3099 46.55 43.513C50.225 44.7161 53.55 46.3604 56.525 48.4458C58.5667 46.2535 60.1562 43.767 61.2938 40.9865C62.4312 38.2059 63 35.2382 63 32.0833C63 24.9715 60.2729 18.9158 54.8187 13.9161C49.3646 8.91649 42.7583 6.41667 35 6.41667C27.2417 6.41667 20.6354 8.91649 15.1812 13.9161C9.72708 18.9158 7 24.9715 7 32.0833C7 35.2382 7.56875 38.2059 8.70625 40.9865C9.84375 43.767 11.4333 46.2535 13.475 48.4458ZM26.2937 32.0432C23.9312 29.8776 22.75 27.2174 22.75 24.0625C22.75 20.9076 23.9312 18.2474 26.2937 16.0818C28.6562 13.9161 31.5583 12.8333 35 12.8333C38.4417 12.8333 41.3438 13.9161 43.7062 16.0818C46.0687 18.2474 47.25 20.9076 47.25 24.0625C47.25 27.2174 46.0687 29.8776 43.7062 32.0432C41.3438 34.2089 38.4417 35.2917 35 35.2917C31.5583 35.2917 28.6562 34.2089 26.2937 32.0432ZM35 64.1667C30.1583 64.1667 25.6083 63.3245 21.35 61.6401C17.0917 59.9557 13.3875 57.6698 10.2375 54.7823C7.0875 51.8948 4.59375 48.4993 2.75625 44.5958C0.91875 40.6924 0 36.5215 0 32.0833C0 27.6451 0.91875 23.4743 2.75625 19.5708C4.59375 15.6674 7.0875 12.2719 10.2375 9.38437C13.3875 6.49687 17.0917 4.21094 21.35 2.52656C25.6083 0.842187 30.1583 0 35 0C39.8417 0 44.3917 0.842187 48.65 2.52656C52.9083 4.21094 56.6125 6.49687 59.7625 9.38437C62.9125 12.2719 65.4062 15.6674 67.2438 19.5708C69.0812 23.4743 70 27.6451 70 32.0833C70 36.5215 69.0812 40.6924 67.2438 44.5958C65.4062 48.4993 62.9125 51.8948 59.7625 54.7823C56.6125 57.6698 52.9083 59.9557 48.65 61.6401C44.3917 63.3245 39.8417 64.1667 35 64.1667ZM43.75 56.5068C46.4917 55.678 49 54.4882 51.275 52.9375C49 51.3868 46.4917 50.197 43.75 49.3682C41.0083 48.5394 38.0917 48.125 35 48.125C31.9083 48.125 28.9917 48.5394 26.25 49.3682C23.5083 50.197 21 51.3868 18.725 52.9375C21 54.4882 23.5083 55.678 26.25 56.5068C28.9917 57.3356 31.9083 57.75 35 57.75C38.0917 57.75 41.0083 57.3356 43.75 56.5068ZM38.7625 27.5115C39.7542 26.6024 40.25 25.4528 40.25 24.0625C40.25 22.6722 39.7542 21.5226 38.7625 20.6135C37.7708 19.7045 36.5167 19.25 35 19.25C33.4833 19.25 32.2292 19.7045 31.2375 20.6135C30.2458 21.5226 29.75 22.6722 29.75 24.0625C29.75 25.4528 30.2458 26.6024 31.2375 27.5115C32.2292 28.4205 33.4833 28.875 35 28.875C36.5167 28.875 37.7708 28.4205 38.7625 27.5115Z" fill="url(#paint0_linear_13_148)"/>
<defs>
<linearGradient id="paint0_linear_13_148" x1="35" y1="0" x2="35" y2="64.1667" gradientUnits="userSpaceOnUse">
<stop stop-color="#9E2A2B"/>
<stop offset="1" stop-color="#2F3BB3"/>
</linearGradient>
</defs>
</svg>
